<svg width="335" height="53" viewBox="0 0 335 53" fill="none" xmlns="http://www.w3.org/2000/svg">
<path d="M20.72 36.88C18.3733 36.88 16.1067 36.3733 13.92 35.36C11.7333 34.3467 9.97333 32.96 8.64 31.2L9.12 28.48V52.24H0.160001V1.52H7.92L9.12 9.36L8.32 6.96C9.97333 5.14667 11.9733 3.65333 14.32 2.48C16.72 1.25333 19.4133 0.639997 22.4 0.639997C25.6 0.639997 28.4533 1.38666 30.96 2.88C33.4667 4.37333 35.44 6.50667 36.88 9.28C38.3733 12 39.12 15.2267 39.12 18.96C39.12 22.6933 38.32 25.8933 36.72 28.56C35.12 31.2267 32.9333 33.28 30.16 34.72C27.3867 36.16 24.24 36.88 20.72 36.88ZM18.96 29.76C20.9333 29.76 22.7467 29.3067 24.4 28.4C26.1067 27.4933 27.4667 26.24 28.48 24.64C29.4933 22.9867 30 21.1467 30 19.12C30 16.9867 29.52 15.12 28.56 13.52C27.6533 11.8667 26.4 10.5867 24.8 9.68C23.2533 8.72 21.52 8.24 19.6 8.24C17.84 8.24 16.2667 8.53333 14.88 9.12C13.4933 9.70667 12.32 10.56 11.36 11.68C10.4 12.7467 9.65333 14.0267 9.12 15.52V22.32C9.49333 23.76 10.1333 25.04 11.04 26.16C11.9467 27.28 13.0933 28.16 14.48 28.8C15.8667 29.44 17.36 29.76 18.96 29.76ZM63.6375 36.88C60.4375 36.88 57.5308 36.2133 54.9175 34.88C52.3575 33.5467 50.3308 31.5733 48.8375 28.96C47.3442 26.2933 46.5975 23.0133 46.5975 19.12C46.5975 15.28 47.3708 12 48.9175 9.28C50.5175 6.50667 52.5975 4.37333 55.1575 2.88C57.7708 1.38666 60.5975 0.639997 63.6375 0.639997C66.8908 0.639997 69.5042 1.28 71.4775 2.56C73.5042 3.84 75.0775 5.36 76.1975 7.12L75.7175 8.4L76.5975 2.16H84.8375V36H75.8775V27.76L76.7575 29.92C76.5442 30.24 76.1175 30.7733 75.4775 31.52C74.8375 32.2133 73.9575 32.9867 72.8375 33.84C71.7175 34.6933 70.3842 35.4133 68.8375 36C67.3442 36.5867 65.6108 36.88 63.6375 36.88ZM66.1175 29.52C67.7175 29.52 69.1575 29.2267 70.4375 28.64C71.7708 28.0533 72.8908 27.2267 73.7975 26.16C74.7575 25.0933 75.4508 23.8133 75.8775 22.32V14.96C75.4508 13.5733 74.7575 12.3733 73.7975 11.36C72.8375 10.2933 71.6642 9.46667 70.2775 8.88C68.9442 8.29333 67.4508 8 65.7975 8C63.9842 8 62.3042 8.45333 60.7575 9.36C59.2108 10.2667 57.9575 11.52 56.9975 13.12C56.0908 14.72 55.6375 16.56 55.6375 18.64C55.6375 20.6667 56.1175 22.5067 57.0775 24.16C58.0375 25.8133 59.3175 27.12 60.9175 28.08C62.5175 29.04 64.2508 29.52 66.1175 29.52ZM120.81 2.16L129.69 22.72L128.01 22.88L136.09 2.16H144.89L129.45 38L118.57 15.12L108.65 38L93.05 2.16H101.85L111.37 23.92L108.25 23.36L115.37 7.2L113.05 2.16H120.81ZM163.189 36.72C160.629 36.72 158.175 36.2667 155.829 35.36C153.535 34.4533 151.589 33.12 149.989 31.36L153.829 26.32C155.322 27.76 156.789 28.8267 158.229 29.52C159.722 30.16 161.135 30.48 162.469 30.48C163.482 30.48 164.389 30.3733 165.189 30.16C166.042 29.8933 166.709 29.4933 167.189 28.96C167.722 28.4267 167.989 27.7067 167.989 26.8C167.989 25.7333 167.615 24.9067 166.869 24.32C166.122 23.68 165.162 23.1733 163.989 22.8C162.815 22.3733 161.589 21.9733 160.309 21.6C157.375 20.6933 155.189 19.36 153.749 17.6C152.309 15.84 151.589 13.8133 151.589 11.52C151.589 9.76 152.042 8.08 152.949 6.48C153.855 4.82667 155.242 3.46667 157.109 2.4C158.975 1.33333 161.322 0.799998 164.149 0.799998C166.709 0.799998 168.922 1.09333 170.789 1.68C172.709 2.21333 174.495 3.14666 176.149 4.48L172.709 9.84C171.749 8.93333 170.602 8.24 169.269 7.76C167.989 7.22667 166.815 6.93333 165.749 6.88C164.789 6.82667 163.935 6.96 163.189 7.28C162.442 7.54667 161.829 7.94667 161.349 8.48C160.922 9.01333 160.709 9.62667 160.709 10.32C160.655 11.3867 161.002 12.24 161.749 12.88C162.549 13.52 163.562 14.0267 164.789 14.4C166.015 14.7733 167.242 15.1733 168.469 15.6C170.122 16.08 171.589 16.7467 172.869 17.6C174.149 18.4533 175.135 19.4933 175.829 20.72C176.575 21.8933 176.949 23.36 176.949 25.12C176.949 27.1467 176.442 29.0667 175.429 30.88C174.415 32.64 172.895 34.0533 170.869 35.12C168.842 36.1867 166.282 36.72 163.189 36.72ZM184.857 18.72C184.857 15.3067 185.657 12.24 187.257 9.52C188.857 6.74667 191.097 4.58666 193.977 3.04C196.91 1.44 200.217 0.639997 203.897 0.639997C207.684 0.639997 210.964 1.44 213.737 3.04C216.564 4.58666 218.75 6.74667 220.297 9.52C221.844 12.24 222.617 15.3067 222.617 18.72C222.617 22.1333 221.844 25.2267 220.297 28C218.75 30.72 216.564 32.88 213.737 34.48C210.964 36.08 207.657 36.88 203.817 36.88C200.19 36.88 196.937 36.16 194.057 34.72C191.177 33.2267 188.91 31.12 187.257 28.4C185.657 25.68 184.857 22.4533 184.857 18.72ZM193.897 18.8C193.897 20.7733 194.324 22.5867 195.177 24.24C196.03 25.84 197.204 27.12 198.697 28.08C200.19 29.04 201.844 29.52 203.657 29.52C205.63 29.52 207.337 29.04 208.777 28.08C210.27 27.12 211.417 25.84 212.217 24.24C213.07 22.5867 213.497 20.7733 213.497 18.8C213.497 16.7733 213.07 14.96 212.217 13.36C211.417 11.7067 210.27 10.4 208.777 9.44C207.337 8.48 205.63 8 203.657 8C201.79 8 200.11 8.50666 198.617 9.52C197.177 10.48 196.03 11.76 195.177 13.36C194.324 14.96 193.897 16.7733 193.897 18.8ZM240.912 2.16L241.712 9.04L241.392 8.48C242.672 6.02667 244.405 4.10667 246.592 2.72C248.832 1.33333 251.419 0.639997 254.352 0.639997C256.219 0.639997 257.872 0.933331 259.312 1.52C260.752 2.10667 261.952 2.93333 262.912 4C263.925 5.06667 264.592 6.4 264.912 8L264.432 8.16C265.819 5.86666 267.605 4.05333 269.792 2.72C271.979 1.33333 274.299 0.639997 276.752 0.639997C280.059 0.639997 282.699 1.6 284.672 3.52C286.645 5.38667 287.659 7.81333 287.712 10.8V36H278.832V14.32C278.779 12.6667 278.432 11.3067 277.792 10.24C277.152 9.12 275.952 8.50666 274.192 8.4C272.272 8.4 270.619 9.01333 269.232 10.24C267.845 11.4133 266.752 12.96 265.952 14.88C265.205 16.7467 264.832 18.7467 264.832 20.88V36H255.792V14.32C255.739 12.6667 255.365 11.3067 254.672 10.24C253.979 9.12 252.752 8.50666 250.992 8.4C249.125 8.4 247.499 9.01333 246.112 10.24C244.725 11.4133 243.659 12.96 242.912 14.88C242.165 16.7467 241.792 18.72 241.792 20.8V36H232.832V2.16H240.912ZM316.979 36.88C312.979 36.88 309.566 36.1067 306.739 34.56C303.913 33.0133 301.753 30.88 300.259 28.16C298.766 25.3867 298.019 22.2667 298.019 18.8C298.019 15.3867 298.873 12.32 300.579 9.6C302.286 6.88 304.579 4.72 307.459 3.12C310.393 1.46666 313.619 0.639997 317.139 0.639997C321.779 0.639997 325.593 2 328.579 4.72C331.619 7.38666 333.646 11.1733 334.659 16.08L307.379 25.28L305.299 20.24L326.579 12.64L324.739 13.68C324.153 12.08 323.193 10.6933 321.859 9.52C320.579 8.34667 318.766 7.76 316.419 7.76C314.553 7.76 312.899 8.21333 311.459 9.12C310.019 9.97333 308.873 11.2 308.019 12.8C307.219 14.3467 306.819 16.1867 306.819 18.32C306.819 20.5067 307.273 22.4267 308.179 24.08C309.086 25.7333 310.313 27.0133 311.859 27.92C313.406 28.7733 315.166 29.2 317.139 29.2C318.526 29.2 319.859 28.96 321.139 28.48C322.419 28 323.619 27.36 324.739 26.56L328.819 33.2C327.059 34.32 325.113 35.2267 322.979 35.92C320.899 36.56 318.899 36.88 316.979 36.88Z" fill="#ED5C01"/>
<path d="M13.92 35.36L14.3405 34.4527L13.92 35.36ZM8.64 31.2L7.65522 31.0262L7.57937 31.456L7.84291 31.8039L8.64 31.2ZM9.12 28.48H10.12L8.13522 28.3062L9.12 28.48ZM9.12 52.24V53.24H10.12V52.24H9.12ZM0.160001 52.24H-0.839999V53.24H0.160001V52.24ZM0.160001 1.52V0.519998H-0.839999V1.52H0.160001ZM7.92 1.52L8.90849 1.3687L8.77859 0.519998H7.92V1.52ZM9.12 9.36L8.17132 9.67623L10.1085 9.2087L9.12 9.36ZM8.32 6.96L7.58104 6.28625L7.18582 6.71972L7.37132 7.27623L8.32 6.96ZM14.32 2.48L14.7672 3.37446L14.7751 3.37043L14.32 2.48ZM30.96 2.88L31.4718 2.0209L31.4718 2.0209L30.96 2.88ZM36.88 9.28L35.9925 9.74081L35.9978 9.7511L36.0034 9.76126L36.88 9.28ZM36.72 28.56L37.5775 29.0745L37.5775 29.0745L36.72 28.56ZM30.16 34.72L30.6208 35.6075L30.6208 35.6075L30.16 34.72ZM24.4 28.4L23.9308 27.5168L23.9192 27.5232L24.4 28.4ZM28.48 24.64L29.3248 25.1751L29.3288 25.1688L29.3326 25.1626L28.48 24.64ZM28.56 13.52L27.6832 14.0008L27.6925 14.0179L27.7025 14.0345L28.56 13.52ZM24.8 9.68L24.2726 10.5296L24.2896 10.5402L24.307 10.55L24.8 9.68ZM14.88 9.12L14.4904 8.19903L14.4904 8.19903L14.88 9.12ZM11.36 11.68L12.1033 12.349L12.1114 12.34L12.1193 12.3308L11.36 11.68ZM9.12 15.52L8.17826 15.1837L8.12 15.3468V15.52H9.12ZM9.12 22.32H8.12V22.4475L8.152 22.571L9.12 22.32ZM11.04 26.16L11.8172 25.5308L11.8172 25.5308L11.04 26.16ZM14.48 28.8L14.8991 27.892L14.8991 27.892L14.48 28.8ZM20.72 35.88C18.5225 35.88 16.399 35.4067 14.3405 34.4527L13.4995 36.2673C15.8143 37.34 18.2241 37.88 20.72 37.88V35.88ZM14.3405 34.4527C12.2884 33.5017 10.6628 32.214 9.43709 30.5961L7.84291 31.8039C9.28391 33.706 11.1783 35.1916 13.4995 36.2673L14.3405 34.4527ZM9.62478 31.3738L10.1048 28.6538L8.13522 28.3062L7.65522 31.0262L9.62478 31.3738ZM8.12 28.48V52.24H10.12V28.48H8.12ZM9.12 51.24H0.160001V53.24H9.12V51.24ZM1.16 52.24V1.52H-0.839999V52.24H1.16ZM0.160001 2.52H7.92V0.519998H0.160001V2.52ZM6.93151 1.6713L8.13151 9.5113L10.1085 9.2087L8.90849 1.3687L6.93151 1.6713ZM10.0687 9.04377L9.26868 6.64377L7.37132 7.27623L8.17132 9.67623L10.0687 9.04377ZM9.05896 7.63375C10.6239 5.91742 12.5229 4.4966 14.7672 3.37442L13.8728 1.58557C11.4238 2.81006 9.32282 4.37591 7.58104 6.28625L9.05896 7.63375ZM14.7751 3.37043C17.0195 2.22329 19.5542 1.64 22.4 1.64V-0.360003C19.2725 -0.360003 16.4205 0.283375 13.8649 1.58956L14.7751 3.37043ZM22.4 1.64C25.4378 1.64 28.1111 2.34676 30.4482 3.7391L31.4718 2.0209C28.7956 0.426565 25.7622 -0.360003 22.4 -0.360003V1.64ZM30.4482 3.7391C32.7836 5.1304 34.6319 7.1204 35.9925 9.74081L37.7675 8.81918C36.2481 5.89293 34.1497 3.61626 31.4718 2.0209L30.4482 3.7391ZM36.0034 9.76126C37.4008 12.3066 38.12 15.3609 38.12 18.96H40.12C40.12 15.0925 39.3458 11.6934 37.7566 8.79874L36.0034 9.76126ZM38.12 18.96C38.12 22.5486 37.3521 25.5628 35.8625 28.0455L37.5775 29.0745C39.2879 26.2238 40.12 22.8381 40.12 18.96H38.12ZM35.8625 28.0455C34.3582 30.5527 32.3092 32.4773 29.6992 33.8325L30.6208 35.6075C33.5575 34.0827 35.8818 31.9006 37.5775 29.0745L35.8625 28.0455ZM29.6992 33.8325C27.0854 35.1897 24.1001 35.88 20.72 35.88V37.88C24.3799 37.88 27.688 37.1303 30.6208 35.6075L29.6992 33.8325ZM18.96 30.76C21.0933 30.76 23.0732 30.2681 24.8808 29.2768L23.9192 27.5232C22.4202 28.3452 20.7734 28.76 18.96 28.76V30.76ZM24.8692 29.2831C26.7259 28.2967 28.2166 26.9248 29.3248 25.1751L27.6352 24.1049C26.7167 25.5552 25.4875 26.6899 23.9308 27.5169L24.8692 29.2831ZM29.3326 25.1626C30.4468 23.3447 31 21.3224 31 19.12H29C29 20.9709 28.5399 22.6286 27.6274 24.1174L29.3326 25.1626ZM31 19.12C31 16.8319 30.4835 14.7822 29.4175 13.0055L27.7025 14.0345C28.5565 15.4578 29 17.1414 29 19.12H31ZM29.4368 13.0392C28.4432 11.2273 27.0589 9.81063 25.293 8.80998L24.307 10.55C25.7411 11.3627 26.8634 12.506 27.6832 14.0008L29.4368 13.0392ZM25.3274 8.83036C23.6135 7.7666 21.6957 7.24 19.6 7.24V9.24C21.3443 9.24 22.8931 9.6734 24.2726 10.5296L25.3274 8.83036ZM19.6 7.24C17.7285 7.24 16.0193 7.55216 14.4904 8.19903L15.2696 10.041C16.514 9.5145 17.9515 9.24 19.6 9.24V7.24ZM14.4904 8.19903C12.9643 8.84467 11.6635 9.78928 10.6007 11.0292L12.1193 12.3308C12.9765 11.3307 14.0224 10.5687 15.2696 10.041L14.4904 8.19903ZM10.6167 11.011C9.56078 12.1843 8.75082 13.5805 8.17826 15.1837L10.0617 15.8563C10.5558 14.4728 11.2392 13.309 12.1033 12.349L10.6167 11.011ZM8.12 15.52V22.32H10.12V15.52H8.12ZM8.152 22.571C8.55999 24.1446 9.26329 25.5546 10.2628 26.7892L11.8172 25.5308C11.0034 24.5254 10.4267 23.3754 10.088 22.069L8.152 22.571ZM10.2628 26.7892C11.2716 28.0354 12.5436 29.0077 14.0609 29.708L14.8991 27.892C13.643 27.3123 12.6217 26.5246 11.8172 25.5308L10.2628 26.7892ZM14.0609 29.708C15.5853 30.4115 17.2224 30.76 18.96 30.76V28.76C17.4976 28.76 16.1481 28.4685 14.8991 27.892L14.0609 29.708ZM54.9175 34.88L54.4555 35.7669L54.463 35.7708L54.9175 34.88ZM48.8375 28.96L47.965 29.4486L47.9693 29.4561L48.8375 28.96ZM48.9175 9.28L48.0513 8.78027L48.0482 8.7857L48.9175 9.28ZM55.1575 2.88L54.6613 2.01172L54.6536 2.01622L55.1575 2.88ZM71.4775 2.56L70.9333 3.39902L70.9435 3.40549L71.4775 2.56ZM76.1975 7.12L77.1338 7.47112L77.309 7.00401L77.0412 6.58312L76.1975 7.12ZM75.7175 8.4L74.7273 8.26035L76.6538 8.75112L75.7175 8.4ZM76.5975 2.16V1.16H75.7286L75.6073 2.02036L76.5975 2.16ZM84.8375 2.16H85.8375V1.16H84.8375V2.16ZM84.8375 36V37H85.8375V36H84.8375ZM75.8775 36H74.8775V37H75.8775V36ZM75.8775 27.76L76.8036 27.3827L74.8775 27.76H75.8775ZM76.7575 29.92L77.5896 30.4747L77.8836 30.0336L77.6836 29.5427L76.7575 29.92ZM75.4775 31.52L76.2123 32.1983L76.2248 32.1848L76.2368 32.1708L75.4775 31.52ZM72.8375 33.84L72.2315 33.0446L72.2315 33.0446L72.8375 33.84ZM68.8375 36L68.4828 35.0649L68.4718 35.0692L68.8375 36ZM70.4375 28.64L70.0348 27.7247L70.0278 27.7278L70.0208 27.7309L70.4375 28.64ZM73.7975 26.16L73.0542 25.491L73.0447 25.5016L73.0356 25.5124L73.7975 26.16ZM75.8775 22.32L76.839 22.5947L76.8775 22.4601V22.32H75.8775ZM75.8775 14.96H76.8775V14.8096L76.8333 14.6659L75.8775 14.96ZM73.7975 11.36L73.0542 12.029L73.0628 12.0385L73.0715 12.0477L73.7975 11.36ZM70.2775 8.88L69.8748 9.79531L69.8813 9.79819L69.8879 9.80097L70.2775 8.88ZM60.7575 9.36L61.2632 10.2227L61.2632 10.2227L60.7575 9.36ZM56.9975 13.12L56.14 12.6055L56.1336 12.6162L56.1275 12.627L56.9975 13.12ZM57.0775 24.16L56.2127 24.6621L56.2127 24.6621L57.0775 24.16ZM60.9175 28.08L61.432 27.2225L61.432 27.2225L60.9175 28.08ZM63.6375 35.88C60.5809 35.88 57.8321 35.2444 55.372 33.9892L54.463 35.7708C57.2296 37.1823 60.2941 37.88 63.6375 37.88V35.88ZM55.3794 33.9931C52.997 32.7523 51.1082 30.9182 49.7057 28.4639L47.9693 29.4561C49.5535 32.2285 51.718 34.3411 54.4556 35.7669L55.3794 33.9931ZM49.71 28.4714C48.3201 25.9895 47.5975 22.8881 47.5975 19.12H45.5975C45.5975 23.1385 46.3682 26.5972 47.965 29.4486L49.71 28.4714ZM47.5975 19.12C47.5975 15.4142 48.3432 12.313 49.7868 9.7743L48.0482 8.7857C46.3984 11.687 45.5975 15.1458 45.5975 19.12H47.5975ZM49.7837 9.77972C51.3039 7.14472 53.2638 5.14238 55.6614 3.74378L54.6536 2.01622C51.9312 3.60429 49.7311 5.86861 48.0513 8.78028L49.7837 9.77972ZM55.6536 3.74824C58.1143 2.34215 60.7697 1.64 63.6375 1.64V-0.360003C60.4253 -0.360003 57.4274 0.431178 54.6614 2.01175L55.6536 3.74824ZM63.6375 1.64C66.7691 1.64 69.173 2.25714 70.9333 3.39896L72.0217 1.72104C69.8353 0.302859 67.0126 -0.360003 63.6375 -0.360003V1.64ZM70.9435 3.40549C72.864 4.61844 74.324 6.03861 75.3538 7.65687L77.0412 6.58312C75.831 4.68139 74.1443 3.06155 72.0115 1.71451L70.9435 3.40549ZM75.2612 6.76887L74.7812 8.04887L76.6538 8.75112L77.1338 7.47112L75.2612 6.76887ZM76.7077 8.53964L77.5877 2.29964L75.6073 2.02036L74.7273 8.26035L76.7077 8.53964ZM76.5975 3.16H84.8375V1.16H76.5975V3.16ZM83.8375 2.16V36H85.8375V2.16H83.8375ZM84.8375 35H75.8775V37H84.8375V35ZM76.8775 36V27.76H74.8775V36H76.8775ZM74.9514 28.1373L75.8314 30.2973L77.6836 29.5427L76.8036 27.3827L74.9514 28.1373ZM75.9255 29.3653C75.7497 29.6289 75.3601 30.1204 74.7182 30.8692L76.2368 32.1708C76.8749 31.4262 77.3386 30.8511 77.5896 30.4747L75.9255 29.3653ZM74.7427 30.8417C74.1562 31.477 73.3254 32.2111 72.2315 33.0446L73.4435 34.6354C74.5896 33.7622 75.5188 32.9496 76.2123 32.1983L74.7427 30.8417ZM72.2315 33.0446C71.2001 33.8304 69.9547 34.5067 68.4828 35.065L69.1922 36.935C70.8136 36.32 72.2349 35.5563 73.4435 34.6354L72.2315 33.0446ZM68.4718 35.0692C67.1184 35.601 65.5136 35.88 63.6375 35.88V37.88C65.7081 37.88 67.57 37.5724 69.2032 36.9308L68.4718 35.0692ZM66.1175 30.52C67.8417 30.52 69.4267 30.2033 70.8542 29.5491L70.0208 27.7309C68.8883 28.25 67.5933 28.52 66.1175 28.52V30.52ZM70.8402 29.5553C72.3062 28.9103 73.5508 27.9943 74.5594 26.8076L73.0356 25.5124C72.2309 26.4591 71.2354 27.1964 70.0348 27.7247L70.8402 29.5553ZM74.5408 26.829C75.6108 25.6401 76.3741 24.2221 76.839 22.5947L74.916 22.0453C74.5276 23.4046 73.9042 24.5466 73.0542 25.491L74.5408 26.829ZM76.8775 22.32V14.96H74.8775V22.32H76.8775ZM76.8333 14.6659C76.3632 13.1381 75.5936 11.8018 74.5235 10.6723L73.0715 12.0477C73.9214 12.9449 74.5385 14.0086 74.9217 15.2541L76.8333 14.6659ZM74.5408 10.691C73.478 9.51012 72.1819 8.5999 70.6671 7.95903L69.8879 9.80097C71.1464 10.3334 72.197 11.0765 73.0542 12.029L74.5408 10.691ZM70.6802 7.96468C69.2039 7.31511 67.5708 7 65.7975 7V9C67.3309 9 68.6844 9.27156 69.8748 9.79531L70.6802 7.96468ZM65.7975 7C63.8085 7 61.9537 7.49965 60.2518 8.4973L61.2632 10.2227C62.6547 9.40701 64.1598 9 65.7975 9V7ZM60.2518 8.4973C58.5545 9.49224 57.1826 10.8679 56.14 12.6055L57.855 13.6345C58.7324 12.1721 59.8671 11.0411 61.2632 10.2227L60.2518 8.4973ZM56.1275 12.627C55.1249 14.3962 54.6375 16.4102 54.6375 18.64H56.6375C56.6375 16.7098 57.0567 15.0438 57.8675 13.613L56.1275 12.627ZM54.6375 18.64C54.6375 20.832 55.1588 22.847 56.2127 24.6621L57.9423 23.6579C57.0762 22.1663 56.6375 20.5013 56.6375 18.64H54.6375ZM56.2127 24.6621C57.2554 26.4579 58.6544 27.8883 60.403 28.9375L61.432 27.2225C59.9806 26.3517 58.8196 25.1688 57.9423 23.6579L56.2127 24.6621ZM60.403 28.9375C62.1585 29.9908 64.0697 30.52 66.1175 30.52V28.52C64.432 28.52 62.8765 28.0892 61.432 27.2225L60.403 28.9375ZM120.81 2.16L121.728 1.76349L121.467 1.16H120.81V2.16ZM129.69 22.72L129.785 23.7155L131.153 23.5852L130.608 22.3235L129.69 22.72ZM128.01 22.88L127.078 22.5167L126.488 24.0294L128.105 23.8755L128.01 22.88ZM136.09 2.16V1.16H135.407L135.158 1.79669L136.09 2.16ZM144.89 2.16L145.808 2.55565L146.41 1.16H144.89V2.16ZM129.45 38L128.547 38.4294L129.495 40.4231L130.368 38.3957L129.45 38ZM118.57 15.12L119.473 14.6906L118.528 12.703L117.653 14.7222L118.57 15.12ZM108.65 38L107.733 38.3991L108.652 40.5098L109.567 38.3978L108.65 38ZM93.05 2.16V1.16H91.5241L92.1331 2.5591L93.05 2.16ZM101.85 2.16L102.766 1.75918L102.504 1.16H101.85V2.16ZM111.37 23.92L111.193 24.9043L113.037 25.2352L112.286 23.5192L111.37 23.92ZM108.25 23.36L107.335 22.9568L106.822 24.1198L108.073 24.3443L108.25 23.36ZM115.37 7.2L116.285 7.60319L116.467 7.19101L116.278 6.78186L115.37 7.2ZM113.05 2.16V1.16H111.489L112.142 2.57814L113.05 2.16ZM119.892 2.5565L128.772 23.1165L130.608 22.3235L121.728 1.76349L119.892 2.5565ZM129.595 21.7245L127.915 21.8845L128.105 23.8755L129.785 23.7155L129.595 21.7245ZM128.942 23.2433L137.022 2.52331L135.158 1.79669L127.078 22.5167L128.942 23.2433ZM136.09 3.16H144.89V1.16H136.09V3.16ZM143.972 1.76435L128.532 37.6043L130.368 38.3957L145.808 2.55565L143.972 1.76435ZM130.353 37.5706L119.473 14.6906L117.667 15.5494L128.547 38.4294L130.353 37.5706ZM117.653 14.7222L107.733 37.6022L109.567 38.3978L119.487 15.5178L117.653 14.7222ZM109.567 37.6009L93.9669 1.7609L92.1331 2.5591L107.733 38.3991L109.567 37.6009ZM93.05 3.16H101.85V1.16H93.05V3.16ZM100.934 2.56082L110.454 24.3208L112.286 23.5192L102.766 1.75918L100.934 2.56082ZM111.547 22.9357L108.427 22.3757L108.073 24.3443L111.193 24.9043L111.547 22.9357ZM109.165 23.7632L116.285 7.60319L114.455 6.7968L107.335 22.9568L109.165 23.7632ZM116.278 6.78186L113.958 1.74186L112.142 2.57814L114.462 7.61814L116.278 6.78186ZM113.05 3.16H120.81V1.16H113.05V3.16ZM155.829 35.36L155.461 36.29L155.468 36.2928L155.829 35.36ZM149.989 31.36L149.193 30.754L148.689 31.4164L149.249 32.0327L149.989 31.36ZM153.829 26.32L154.523 25.6002L153.714 24.8203L153.033 25.714L153.829 26.32ZM158.229 29.52L157.795 30.421L157.815 30.4305L157.835 30.4391L158.229 29.52ZM165.189 30.16L165.446 31.1262L165.467 31.1208L165.487 31.1145L165.189 30.16ZM167.189 28.96L166.482 28.2529L166.463 28.2715L166.445 28.291L167.189 28.96ZM166.869 24.32L166.218 25.0793L166.234 25.0931L166.251 25.1063L166.869 24.32ZM163.989 22.8L163.647 23.7398L163.666 23.7468L163.686 23.7529L163.989 22.8ZM160.309 21.6L160.013 22.5554L160.021 22.5578L160.029 22.56L160.309 21.6ZM153.749 17.6L152.975 18.2332L152.975 18.2332L153.749 17.6ZM152.949 6.48L153.819 6.97306L153.826 6.96083L152.949 6.48ZM157.109 2.4L157.605 3.26824L157.605 3.26824L157.109 2.4ZM170.789 1.68L170.489 2.63399L170.505 2.63902L170.521 2.64352L170.789 1.68ZM176.149 4.48L176.99 5.02012L177.475 4.26491L176.776 3.70158L176.149 4.48ZM172.709 9.84L172.022 10.567L172.899 11.3951L173.55 10.3801L172.709 9.84ZM169.269 7.76L168.884 8.68308L168.907 8.69255L168.93 8.70089L169.269 7.76ZM165.749 6.88L165.693 7.87847L165.699 7.87875L165.749 6.88ZM163.189 7.28L163.525 8.22174L163.554 8.21133L163.583 8.19914L163.189 7.28ZM161.349 8.48L160.605 7.81103L160.586 7.83262L160.568 7.8553L161.349 8.48ZM160.709 10.32L161.707 10.3699L161.709 10.345V10.32H160.709ZM161.749 12.88L161.098 13.6393L161.111 13.6503L161.124 13.6609L161.749 12.88ZM168.469 15.6L168.14 16.5445L168.165 16.5531L168.19 16.5603L168.469 15.6ZM172.869 17.6L172.314 18.432L172.314 18.4321L172.869 17.6ZM175.829 20.72L174.958 21.2121L174.971 21.2348L174.985 21.2569L175.829 20.72ZM175.429 30.88L176.295 31.379L176.302 31.3678L175.429 30.88ZM170.869 35.12L170.403 34.2351L170.403 34.2351L170.869 35.12ZM163.189 35.72C160.75 35.72 158.419 35.2887 156.189 34.4272L155.468 36.2928C157.932 37.2447 160.508 37.72 163.189 37.72V35.72ZM156.196 34.43C154.04 33.5774 152.222 32.33 150.729 30.6873L149.249 32.0327C150.955 33.91 153.031 35.3292 155.461 36.29L156.196 34.43ZM150.784 31.966L154.624 26.926L153.033 25.714L149.193 30.754L150.784 31.966ZM153.135 27.0398C154.683 28.5329 156.235 29.6701 157.795 30.421L158.663 28.619C157.342 27.9832 155.961 26.9871 154.523 25.6002L153.135 27.0398ZM157.835 30.4391C159.426 31.1211 160.974 31.48 162.469 31.48V29.48C161.297 29.48 160.018 29.1989 158.623 28.6009L157.835 30.4391ZM162.469 31.48C163.55 31.48 164.546 31.3663 165.446 31.1262L164.931 29.1938C164.231 29.3803 163.414 29.48 162.469 29.48V31.48ZM165.487 31.1145C166.47 30.8073 167.306 30.3248 167.932 29.629L166.445 28.291C166.112 28.6618 165.614 28.9793 164.89 29.2055L165.487 31.1145ZM167.896 29.6671C168.654 28.9093 168.989 27.9145 168.989 26.8H166.989C166.989 27.4988 166.79 27.9441 166.482 28.2529L167.896 29.6671ZM168.989 26.8C168.989 25.4695 168.506 24.335 167.487 23.5337L166.251 25.1063C166.724 25.4783 166.989 25.9972 166.989 26.8H168.989ZM167.52 23.5607C166.649 22.8146 165.562 22.2511 164.292 21.8471L163.686 23.7529C164.762 24.0955 165.595 24.5454 166.218 25.0793L167.52 23.5607ZM164.33 21.8602C163.135 21.4257 161.888 21.019 160.589 20.64L160.029 22.56C161.289 22.9277 162.495 23.321 163.647 23.7398L164.33 21.8602ZM160.604 20.6446C157.794 19.7761 155.802 18.5299 154.523 16.9668L152.975 18.2332C154.576 20.1901 156.956 21.6105 160.013 22.5554L160.604 20.6446ZM154.523 16.9668C153.23 15.3871 152.589 13.5846 152.589 11.52H150.589C150.589 14.042 151.387 16.2929 152.975 18.2332L154.523 16.9668ZM152.589 11.52C152.589 9.9407 152.993 8.42969 153.819 6.97301L152.079 5.98699C151.091 7.73031 150.589 9.5793 150.589 11.52H152.589ZM153.826 6.96083C154.632 5.49099 155.875 4.25648 157.605 3.26824L156.613 1.53176C154.609 2.67685 153.079 4.16234 152.072 5.99917L153.826 6.96083ZM157.605 3.26824C159.28 2.31094 161.443 1.8 164.149 1.8V-0.200002C161.201 -0.200002 158.671 0.355725 156.613 1.53176L157.605 3.26824ZM164.149 1.8C166.637 1.8 168.744 2.08555 170.489 2.63399L171.089 0.726005C169.1 0.101111 166.781 -0.200002 164.149 -0.200002V1.8ZM170.521 2.64352C172.301 3.13798 173.967 4.00496 175.521 5.25841L176.776 3.70158C175.024 2.28836 173.116 1.28868 171.056 0.71648L170.521 2.64352ZM175.307 3.93988L171.867 9.29988L173.55 10.3801L176.99 5.02012L175.307 3.93988ZM173.395 9.11298C172.328 8.10509 171.061 7.34226 169.607 6.81911L168.93 8.70089C170.144 9.13774 171.169 9.76157 172.022 10.567L173.395 9.11298ZM169.653 6.83692C168.297 6.2718 167.009 5.94176 165.799 5.88125L165.699 7.87875C166.622 7.9249 167.68 8.18153 168.884 8.68308L169.653 6.83692ZM165.804 5.88154C164.718 5.82121 163.707 5.96995 162.795 6.36085L163.583 8.19914C164.164 7.95004 164.859 7.83212 165.693 7.87846L165.804 5.88154ZM162.852 6.33826C161.966 6.65473 161.208 7.14188 160.605 7.81103L162.092 9.14896C162.45 8.75145 162.918 8.43861 163.525 8.22174L162.852 6.33826ZM160.568 7.8553C159.997 8.56884 159.709 9.40333 159.709 10.32H161.709C161.709 9.85 161.847 9.45782 162.13 9.10469L160.568 7.8553ZM159.71 10.2701C159.643 11.6152 160.094 12.7787 161.098 13.6393L162.4 12.1207C161.91 11.7013 161.668 11.1582 161.707 10.3699L159.71 10.2701ZM161.124 13.6609C162.045 14.3973 163.179 14.9554 164.498 15.3567L165.08 13.4433C163.945 13.098 163.053 12.6427 162.373 12.0991L161.124 13.6609ZM164.498 15.3567C165.712 15.7261 166.926 16.1221 168.14 16.5445L168.797 14.6555C167.558 14.2246 166.319 13.8205 165.08 13.4433L164.498 15.3567ZM168.19 16.5603C169.757 17.0152 171.128 17.6416 172.314 18.432L173.423 16.7679C172.049 15.8517 170.487 15.1448 168.748 14.6397L168.19 16.5603ZM172.314 18.4321C173.476 19.2065 174.349 20.1341 174.958 21.2121L176.699 20.2279C175.922 18.8525 174.822 17.7001 173.423 16.7679L172.314 18.4321ZM174.985 21.2569C175.606 22.2321 175.949 23.5 175.949 25.12H177.949C177.949 23.22 177.545 21.5545 176.672 20.1831L174.985 21.2569ZM175.949 25.12C175.949 26.9715 175.488 28.724 174.556 30.3922L176.302 31.3678C177.396 29.4093 177.949 27.3219 177.949 25.12H175.949ZM174.562 30.381C173.655 31.9568 172.284 33.245 170.403 34.2351L171.334 36.0049C173.507 34.8617 175.176 33.3232 176.295 31.379L174.562 30.381ZM170.403 34.2351C168.561 35.2044 166.174 35.72 163.189 35.72V37.72C166.39 37.72 169.123 37.169 171.334 36.0049L170.403 34.2351ZM187.257 9.52L188.119 10.027L188.123 10.0197L187.257 9.52ZM193.977 3.04L194.45 3.92101L194.456 3.91789L193.977 3.04ZM213.737 3.04L213.237 3.90618L213.247 3.91183L213.257 3.91726L213.737 3.04ZM220.297 9.52L219.423 10.0071L219.428 10.0143L220.297 9.52ZM220.297 28L221.166 28.4943L221.17 28.4871L220.297 28ZM213.737 34.48L213.244 33.6097L213.237 33.6138L213.737 34.48ZM194.057 34.72L193.597 35.6078L193.603 35.6111L193.61 35.6144L194.057 34.72ZM187.257 28.4L186.395 28.907L186.399 28.9132L186.402 28.9194L187.257 28.4ZM195.177 24.24L194.288 24.6987L194.295 24.7106L195.177 24.24ZM198.697 28.08L198.156 28.9212L198.156 28.9212L198.697 28.08ZM208.777 28.08L208.236 27.2388L208.229 27.2433L208.222 27.2479L208.777 28.08ZM212.217 24.24L211.328 23.7813L211.322 23.7928L212.217 24.24ZM212.217 13.36L211.317 13.7956L211.325 13.8132L211.335 13.8306L212.217 13.36ZM208.777 9.44L208.222 10.272L208.229 10.2767L208.236 10.2812L208.777 9.44ZM198.617 9.52L199.172 10.3521L199.178 10.3475L198.617 9.52ZM185.857 18.72C185.857 15.4699 186.617 12.5809 188.119 10.027L186.395 9.01298C184.697 11.8991 183.857 15.1434 183.857 18.72H185.857ZM188.123 10.0197C189.628 7.41111 191.73 5.38157 194.45 3.92099L193.504 2.159C190.463 3.79176 188.086 6.08222 186.391 9.02028L188.123 10.0197ZM194.456 3.91789C197.228 2.40592 200.367 1.64 203.897 1.64V-0.360003C200.067 -0.360003 196.593 0.474073 193.498 2.1621L194.456 3.91789ZM203.897 1.64C207.54 1.64 210.641 2.40866 213.237 3.90618L214.237 2.17381C211.286 0.471338 207.827 -0.360003 203.897 -0.360003V1.64ZM213.257 3.91726C215.921 5.37491 217.97 7.40079 219.424 10.0071L221.17 9.03293C219.53 6.09254 217.206 3.79842 214.217 2.16274L213.257 3.91726ZM219.428 10.0143C220.881 12.5702 221.617 15.4638 221.617 18.72H223.617C223.617 15.1496 222.806 11.9098 221.166 9.0257L219.428 10.0143ZM221.617 18.72C221.617 21.976 220.881 24.8996 219.424 27.5129L221.17 28.4871C222.806 25.5537 223.617 22.2907 223.617 18.72H221.617ZM219.428 27.5057C217.974 30.0625 215.92 32.0952 213.244 33.6097L214.229 35.3503C217.207 33.6648 219.527 31.3775 221.166 28.4943L219.428 27.5057ZM213.237 33.6138C210.643 35.1102 207.516 35.88 203.817 35.88V37.88C207.797 37.88 211.284 37.0498 214.237 35.3462L213.237 33.6138ZM203.817 35.88C200.326 35.88 197.229 35.1878 194.504 33.8256L193.61 35.6144C196.645 37.1322 200.055 37.88 203.817 37.88V35.88ZM194.517 33.8322C191.797 32.4216 189.668 30.4409 188.111 27.8806L186.402 28.9194C188.153 31.7991 190.557 34.0318 193.597 35.6078L194.517 33.8322ZM188.119 27.893C186.625 25.3527 185.857 22.3079 185.857 18.72H183.857C183.857 22.5988 184.689 26.0073 186.395 28.907L188.119 27.893ZM192.897 18.8C192.897 20.923 193.357 22.8949 194.288 24.6986L196.065 23.7814C195.29 22.2784 194.897 20.6237 194.897 18.8H192.897ZM194.295 24.7106C195.226 26.4579 196.516 27.8668 198.156 28.9212L199.238 27.2388C197.891 26.3732 196.834 25.2221 196.059 23.7694L194.295 24.7106ZM198.156 28.9212C199.814 29.9872 201.656 30.52 203.657 30.52V28.52C202.031 28.52 200.566 28.0928 199.238 27.2388L198.156 28.9212ZM203.657 30.52C205.799 30.52 207.705 29.9964 209.332 28.912L208.222 27.2479C206.969 28.0836 205.461 28.52 203.657 28.52V30.52ZM209.318 28.9212C210.963 27.8632 212.232 26.4466 213.111 24.6872L211.322 23.7928C210.602 25.2334 209.577 26.3768 208.236 27.2388L209.318 28.9212ZM213.105 24.6986C214.036 22.8949 214.497 20.923 214.497 18.8H212.497C212.497 20.6237 212.104 22.2784 211.328 23.7814L213.105 24.6986ZM214.497 18.8C214.497 16.6288 214.039 14.6506 213.099 12.8894L211.335 13.8306C212.102 15.2694 212.497 16.9179 212.497 18.8H214.497ZM213.117 12.9244C212.24 11.1114 210.971 9.66192 209.318 8.59882L208.236 10.2812C209.569 11.1381 210.594 12.3019 211.317 13.7956L213.117 12.9244ZM209.332 8.60795C207.705 7.52361 205.799 7 203.657 7V9C205.461 9 206.969 9.43638 208.222 10.272L209.332 8.60795ZM203.657 7C201.597 7 199.72 7.56274 198.055 8.69252L199.178 10.3475C200.5 9.45059 201.983 9 203.657 9V7ZM198.062 8.68795C196.478 9.74396 195.222 11.1509 194.295 12.8894L196.059 13.8306C196.839 12.3691 197.876 11.216 199.172 10.352L198.062 8.68795ZM194.295 12.8894C193.355 14.6506 192.897 16.6288 192.897 18.8H194.897C194.897 16.9179 195.292 15.2694 196.059 13.8306L194.295 12.8894ZM240.912 2.16L241.905 2.0445L241.802 1.16H240.912V2.16ZM241.712 9.04L240.844 9.53614L242.705 8.9245L241.712 9.04ZM241.392 8.48L240.505 8.01743L240.253 8.5018L240.524 8.97614L241.392 8.48ZM246.592 2.72L246.065 1.86968L246.056 1.87549L246.592 2.72ZM262.912 4L262.169 4.66896L262.178 4.67898L262.187 4.68875L262.912 4ZM264.912 8L265.228 8.94868L266.066 8.66952L265.892 7.80388L264.912 8ZM264.432 8.16L263.576 7.64258L262.17 9.96804L264.748 9.10868L264.432 8.16ZM269.792 2.72L270.312 3.5738L270.32 3.56922L270.327 3.56451L269.792 2.72ZM284.672 3.52L283.974 4.2368L283.985 4.24647L284.672 3.52ZM287.712 10.8H288.712V10.7911L288.712 10.7821L287.712 10.8ZM287.712 36V37H288.712V36H287.712ZM278.832 36H277.832V37H278.832V36ZM278.832 14.32H279.832V14.3039L279.831 14.2878L278.832 14.32ZM277.792 10.24L276.924 10.7361L276.929 10.7454L276.934 10.7545L277.792 10.24ZM274.192 8.4L274.252 7.40183L274.222 7.4H274.192V8.4ZM269.232 10.24L269.878 11.0034L269.886 10.9963L269.894 10.989L269.232 10.24ZM265.952 14.88L265.029 14.4954L265.026 14.502L265.023 14.5086L265.952 14.88ZM264.832 36V37H265.832V36H264.832ZM255.792 36H254.792V37H255.792V36ZM255.792 14.32H256.792V14.3039L256.791 14.2878L255.792 14.32ZM254.672 10.24L253.822 10.7664L253.827 10.7757L253.833 10.785L254.672 10.24ZM250.992 8.4L251.052 7.40183L251.022 7.4H250.992V8.4ZM246.112 10.24L246.758 11.0034L246.766 10.9963L246.774 10.989L246.112 10.24ZM242.912 14.88L243.84 15.2514L243.844 15.2424L242.912 14.88ZM241.792 36V37H242.792V36H241.792ZM232.832 36H231.832V37H232.832V36ZM232.832 2.16V1.16H231.832V2.16H232.832ZM239.919 2.2755L240.719 9.1555L242.705 8.9245L241.905 2.0445L239.919 2.2755ZM242.58 8.54386L242.26 7.98386L240.524 8.97614L240.844 9.53614L242.58 8.54386ZM242.278 8.94256C243.483 6.63411 245.1 4.85047 247.127 3.56451L246.056 1.87549C243.711 3.36286 241.861 5.41922 240.505 8.01743L242.278 8.94256ZM247.118 3.57026C249.183 2.29232 251.583 1.64 254.352 1.64V-0.360003C251.254 -0.360003 248.481 0.374344 246.066 1.86973L247.118 3.57026ZM254.352 1.64C256.115 1.64 257.636 1.91696 258.935 2.44609L259.689 0.593906C258.108 -0.0503002 256.323 -0.360003 254.352 -0.360003V1.64ZM258.935 2.44609C260.247 2.98062 261.318 3.72371 262.169 4.66896L263.655 3.33104C262.586 2.14296 261.257 1.23271 259.689 0.593906L258.935 2.44609ZM262.187 4.68875C263.056 5.60397 263.644 6.76031 263.931 8.19611L265.892 7.80388C265.54 6.03969 264.794 4.52936 263.637 3.31125L262.187 4.68875ZM264.596 7.05132L264.116 7.21132L264.748 9.10868L265.228 8.94868L264.596 7.05132ZM265.288 8.67742C266.595 6.51491 268.269 4.81962 270.312 3.5738L269.271 1.8662C266.941 3.28704 265.042 5.21842 263.576 7.64258L265.288 8.67742ZM270.327 3.56451C272.363 2.27351 274.499 1.64 276.752 1.64V-0.360003C274.098 -0.360003 271.594 0.393157 269.256 1.87549L270.327 3.56451ZM276.752 1.64C279.854 1.64 282.224 2.53387 283.975 4.23672L285.369 2.80327C283.173 0.666124 280.263 -0.360003 276.752 -0.360003V1.64ZM283.985 4.24647C285.742 5.90917 286.663 8.07028 286.712 10.8179L288.712 10.7821C288.654 7.55638 287.548 4.86416 285.359 2.79353L283.985 4.24647ZM286.712 10.8V36H288.712V10.8H286.712ZM287.712 35H278.832V37H287.712V35ZM279.832 36V14.32H277.832V36H279.832ZM279.831 14.2878C279.774 12.5184 279.401 10.9785 278.649 9.7255L276.934 10.7545C277.463 11.6348 277.783 12.815 277.832 14.3522L279.831 14.2878ZM278.66 9.74386C277.795 8.22962 276.213 7.52065 274.252 7.40183L274.131 9.39817C275.691 9.49268 276.509 10.0104 276.924 10.7361L278.66 9.74386ZM274.192 7.4C272.038 7.4 270.146 8.09615 268.569 9.491L269.894 10.989C271.091 9.93051 272.506 9.4 274.192 9.4V7.4ZM268.586 9.47661C267.062 10.7664 265.881 12.4503 265.029 14.4954L266.875 15.2646C267.623 13.4697 268.629 12.0603 269.878 11.0034L268.586 9.47661ZM265.023 14.5086C264.227 16.5005 263.832 18.6273 263.832 20.88H265.832C265.832 18.866 266.184 16.9928 266.88 15.2514L265.023 14.5086ZM263.832 20.88V36H265.832V20.88H263.832ZM264.832 35H255.792V37H264.832V35ZM256.792 36V14.32H254.792V36H256.792ZM256.791 14.2878C256.734 12.5057 256.329 10.9542 255.51 9.69501L253.833 10.785C254.402 11.6592 254.743 12.8277 254.792 14.3522L256.791 14.2878ZM255.522 9.71364C254.603 8.22883 253.016 7.52086 251.052 7.40183L250.931 9.39817C252.487 9.49247 253.354 10.0112 253.822 10.7664L255.522 9.71364ZM250.992 7.4C248.883 7.4 247.02 8.10114 245.449 9.491L246.774 10.989C247.977 9.92552 249.367 9.4 250.992 9.4V7.4ZM245.466 9.47661C243.936 10.7714 242.779 12.4633 241.98 14.5176L243.844 15.2424C244.538 13.4567 245.515 12.0553 246.758 11.0034L245.466 9.47661ZM241.983 14.5086C241.188 16.4975 240.792 18.5973 240.792 20.8H242.792C242.792 18.8427 243.143 16.9958 243.84 15.2514L241.983 14.5086ZM240.792 20.8V36H242.792V20.8H240.792ZM241.792 35H232.832V37H241.792V35ZM233.832 36V2.16H231.832V36H233.832ZM232.832 3.16H240.912V1.16H232.832V3.16ZM306.739 34.56L307.219 33.6827L306.739 34.56ZM300.259 28.16L299.379 28.6341L299.383 28.6413L300.259 28.16ZM300.579 9.6L299.732 9.06851L299.732 9.06851L300.579 9.6ZM307.459 3.12L307.945 3.99417L307.95 3.99115L307.459 3.12ZM328.579 4.72L327.906 5.45934L327.913 5.46561L327.92 5.47176L328.579 4.72ZM334.659 16.08L334.979 17.0276L335.818 16.7447L335.639 15.8777L334.659 16.08ZM307.379 25.28L306.455 25.6615L306.812 26.5267L307.699 26.2276L307.379 25.28ZM305.299 20.24L304.963 19.2983L303.975 19.6513L304.375 20.6215L305.299 20.24ZM326.579 12.64L327.071 13.5106L326.243 11.6983L326.579 12.64ZM324.739 13.68L323.8 14.0243L324.206 15.1302L325.231 14.5506L324.739 13.68ZM321.859 9.52L321.184 10.2572L321.191 10.264L321.199 10.2707L321.859 9.52ZM311.459 9.12L311.969 9.98029L311.981 9.97342L311.992 9.96623L311.459 9.12ZM308.019 12.8L307.137 12.3294L307.131 12.3406L308.019 12.8ZM308.179 24.08L309.056 23.5992L309.056 23.5992L308.179 24.08ZM311.859 27.92L311.354 28.7827L311.365 28.7893L311.376 28.7956L311.859 27.92ZM321.139 28.48L321.49 29.4163L321.49 29.4163L321.139 28.48ZM324.739 26.56L325.591 26.0365L325.03 25.1233L324.158 25.7463L324.739 26.56ZM328.819 33.2L329.356 34.0437L330.187 33.5152L329.671 32.6765L328.819 33.2ZM322.979 35.92L323.273 36.8758L323.281 36.8735L323.288 36.871L322.979 35.92ZM316.979 35.88C313.107 35.88 309.867 35.1317 307.219 33.6827L306.259 35.4373C309.265 37.0817 312.852 37.88 316.979 37.88V35.88ZM307.219 33.6827C304.553 32.2239 302.534 30.225 301.136 27.6787L299.383 28.6413C300.972 31.535 303.272 33.8028 306.259 35.4373L307.219 33.6827ZM301.14 27.6859C299.733 25.0725 299.019 22.1182 299.019 18.8H297.019C297.019 22.4152 297.799 25.7008 299.379 28.6341L301.14 27.6859ZM299.019 18.8C299.019 15.5623 299.826 12.6821 301.426 10.1315L299.732 9.06851C297.919 11.9579 297.019 15.211 297.019 18.8H299.019ZM301.426 10.1315C303.041 7.55819 305.208 5.51446 307.945 3.99416L306.974 2.24584C303.95 3.92553 301.531 6.20181 299.732 9.06851L301.426 10.1315ZM307.95 3.99115C310.727 2.42618 313.783 1.64 317.139 1.64V-0.360003C313.455 -0.360003 310.058 0.507147 306.968 2.24885L307.95 3.99115ZM317.139 1.64C321.57 1.64 325.131 2.93193 327.906 5.45934L329.253 3.98066C326.055 1.06807 321.989 -0.360003 317.139 -0.360003V1.64ZM327.92 5.47176C330.761 7.96354 332.7 11.5368 333.68 16.2823L335.639 15.8777C334.592 10.8099 332.478 6.80979 329.239 3.96824L327.92 5.47176ZM334.34 15.1324L307.06 24.3324L307.699 26.2276L334.979 17.0276L334.34 15.1324ZM308.304 24.8985L306.224 19.8585L304.375 20.6215L306.455 25.6615L308.304 24.8985ZM305.636 21.1817L326.916 13.5817L326.243 11.6983L304.963 19.2983L305.636 21.1817ZM326.087 11.7694L324.247 12.8094L325.231 14.5506L327.071 13.5106L326.087 11.7694ZM325.678 13.3357C325.032 11.5725 323.973 10.048 322.52 8.76928L321.199 10.2707C322.412 11.3387 323.274 12.5875 323.8 14.0243L325.678 13.3357ZM322.535 8.78284C321.014 7.38853 318.927 6.76 316.419 6.76V8.76C318.605 8.76 320.145 9.3048 321.184 10.2572L322.535 8.78284ZM316.419 6.76C314.383 6.76 312.541 7.257 310.927 8.27376L311.992 9.96623C313.257 9.16966 314.722 8.76 316.419 8.76V6.76ZM310.95 8.25971C309.339 9.21413 308.069 10.5818 307.137 12.3294L308.902 13.2706C309.676 11.8182 310.7 10.7325 311.969 9.98029L310.95 8.25971ZM307.131 12.3406C306.243 14.0577 305.819 16.0623 305.819 18.32H307.819C307.819 16.3111 308.196 14.6356 308.908 13.2594L307.131 12.3406ZM305.819 18.32C305.819 20.6477 306.303 22.7381 307.303 24.5608L309.056 23.5992C308.242 22.1152 307.819 20.3656 307.819 18.32H305.819ZM307.303 24.5608C308.291 26.3641 309.643 27.7798 311.354 28.7827L312.365 27.0573C310.983 26.2469 309.881 25.1026 309.056 23.5992L307.303 24.5608ZM311.376 28.7956C313.088 29.7397 315.017 30.2 317.139 30.2V28.2C315.315 28.2 313.724 27.8069 312.342 27.0444L311.376 28.7956ZM317.139 30.2C318.644 30.2 320.097 29.939 321.49 29.4163L320.788 27.5437C319.622 27.981 318.408 28.2 317.139 28.2V30.2ZM321.49 29.4163C322.853 28.9055 324.13 28.2241 325.321 27.3737L324.158 25.7463C323.109 26.4959 321.986 27.0945 320.788 27.5437L321.49 29.4163ZM323.887 27.0835L327.967 33.7235L329.671 32.6765L325.591 26.0365L323.887 27.0835ZM328.282 32.3563C326.599 33.4278 324.729 34.2997 322.67 34.969L323.288 36.871C325.496 36.1536 327.52 35.2122 329.356 34.0437L328.282 32.3563ZM322.685 34.9642C320.688 35.5788 318.787 35.88 316.979 35.88V37.88C319.011 37.88 321.111 37.5412 323.273 36.8758L322.685 34.9642Z" fill="#ED5C01"/>
</svg>
