<svg width="168" height="27" viewBox="0 0 168 27" fill="none" xmlns="http://www.w3.org/2000/svg">
<path d="M10.36 18.44C9.18667 18.44 8.05333 18.1867 6.96 17.68C5.86667 17.1733 4.98667 16.48 4.32 15.6L4.56 14.24V26.12H0.0800003V0.759999H3.96L4.56 4.68L4.16 3.48C4.98667 2.57333 5.98667 1.82667 7.16 1.24C8.36 0.626665 9.70667 0.319999 11.2 0.319999C12.8 0.319999 14.2267 0.693332 15.48 1.44C16.7333 2.18667 17.72 3.25333 18.44 4.64C19.1867 6 19.56 7.61333 19.56 9.48C19.56 11.3467 19.16 12.9467 18.36 14.28C17.56 15.6133 16.4667 16.64 15.08 17.36C13.6933 18.08 12.12 18.44 10.36 18.44ZM9.48 14.88C10.4667 14.88 11.3733 14.6533 12.2 14.2C13.0533 13.7467 13.7333 13.12 14.24 12.32C14.7467 11.4933 15 10.5733 15 9.56C15 8.49333 14.76 7.56 14.28 6.76C13.8267 5.93333 13.2 5.29333 12.4 4.84C11.6267 4.36 10.76 4.12 9.8 4.12C8.92 4.12 8.13333 4.26667 7.44 4.56C6.74667 4.85333 6.16 5.28 5.68 5.84C5.2 6.37333 4.82667 7.01333 4.56 7.76V11.16C4.74667 11.88 5.06667 12.52 5.52 13.08C5.97333 13.64 6.54667 14.08 7.24 14.4C7.93333 14.72 8.68 14.88 9.48 14.88ZM31.8188 18.44C30.2188 18.44 28.7654 18.1067 27.4588 17.44C26.1787 16.7733 25.1654 15.7867 24.4187 14.48C23.6721 13.1467 23.2987 11.5067 23.2987 9.56C23.2987 7.64 23.6854 6 24.4587 4.64C25.2587 3.25333 26.2987 2.18667 27.5787 1.44C28.8854 0.693332 30.2988 0.319999 31.8188 0.319999C33.4454 0.319999 34.7521 0.639999 35.7388 1.28C36.7521 1.92 37.5388 2.68 38.0988 3.56L37.8588 4.2L38.2988 1.08H42.4188V18H37.9388V13.88L38.3788 14.96C38.2721 15.12 38.0588 15.3867 37.7388 15.76C37.4188 16.1067 36.9788 16.4933 36.4187 16.92C35.8587 17.3467 35.1921 17.7067 34.4188 18C33.6721 18.2933 32.8054 18.44 31.8188 18.44ZM33.0588 14.76C33.8588 14.76 34.5788 14.6133 35.2187 14.32C35.8854 14.0267 36.4454 13.6133 36.8988 13.08C37.3788 12.5467 37.7254 11.9067 37.9388 11.16V7.48C37.7254 6.78667 37.3788 6.18667 36.8988 5.68C36.4188 5.14667 35.8321 4.73333 35.1388 4.44C34.4721 4.14667 33.7254 4 32.8987 4C31.9921 4 31.1521 4.22667 30.3788 4.68C29.6054 5.13333 28.9788 5.76 28.4987 6.56C28.0454 7.36 27.8187 8.28 27.8187 9.32C27.8187 10.3333 28.0587 11.2533 28.5387 12.08C29.0188 12.9067 29.6588 13.56 30.4588 14.04C31.2588 14.52 32.1254 14.76 33.0588 14.76ZM60.405 1.08L64.845 11.36L64.005 11.44L68.045 1.08H72.445L64.725 19L59.285 7.56L54.325 19L46.525 1.08H50.925L55.685 11.96L54.125 11.68L57.685 3.6L56.525 1.08H60.405ZM81.5944 18.36C80.3144 18.36 79.0877 18.1333 77.9144 17.68C76.7677 17.2267 75.7944 16.56 74.9944 15.68L76.9144 13.16C77.661 13.88 78.3944 14.4133 79.1144 14.76C79.861 15.08 80.5677 15.24 81.2344 15.24C81.741 15.24 82.1944 15.1867 82.5944 15.08C83.021 14.9467 83.3544 14.7467 83.5944 14.48C83.861 14.2133 83.9944 13.8533 83.9944 13.4C83.9944 12.8667 83.8077 12.4533 83.4344 12.16C83.061 11.84 82.581 11.5867 81.9944 11.4C81.4077 11.1867 80.7944 10.9867 80.1544 10.8C78.6877 10.3467 77.5944 9.68 76.8744 8.8C76.1544 7.92 75.7944 6.90667 75.7944 5.76C75.7944 4.88 76.021 4.04 76.4744 3.24C76.9277 2.41333 77.621 1.73333 78.5544 1.2C79.4877 0.666666 80.661 0.399999 82.0744 0.399999C83.3544 0.399999 84.461 0.546666 85.3944 0.839999C86.3544 1.10667 87.2477 1.57333 88.0744 2.24L86.3544 4.92C85.8744 4.46667 85.301 4.12 84.6344 3.88C83.9944 3.61333 83.4077 3.46667 82.8744 3.44C82.3944 3.41333 81.9677 3.48 81.5944 3.64C81.221 3.77333 80.9144 3.97333 80.6744 4.24C80.461 4.50667 80.3544 4.81333 80.3544 5.16C80.3277 5.69333 80.501 6.12 80.8744 6.44C81.2744 6.76 81.781 7.01333 82.3944 7.2C83.0077 7.38667 83.621 7.58667 84.2344 7.8C85.061 8.04 85.7944 8.37333 86.4344 8.8C87.0744 9.22667 87.5677 9.74667 87.9144 10.36C88.2877 10.9467 88.4744 11.68 88.4744 12.56C88.4744 13.5733 88.221 14.5333 87.7144 15.44C87.2077 16.32 86.4477 17.0267 85.4344 17.56C84.421 18.0933 83.141 18.36 81.5944 18.36ZM92.4284 9.36C92.4284 7.65333 92.8284 6.12 93.6284 4.76C94.4284 3.37333 95.5484 2.29333 96.9884 1.52C98.4551 0.719999 100.108 0.319999 101.948 0.319999C103.842 0.319999 105.482 0.719999 106.868 1.52C108.282 2.29333 109.375 3.37333 110.148 4.76C110.922 6.12 111.308 7.65333 111.308 9.36C111.308 11.0667 110.922 12.6133 110.148 14C109.375 15.36 108.282 16.44 106.868 17.24C105.482 18.04 103.828 18.44 101.908 18.44C100.095 18.44 98.4684 18.08 97.0284 17.36C95.5884 16.6133 94.4551 15.56 93.6284 14.2C92.8284 12.84 92.4284 11.2267 92.4284 9.36ZM96.9484 9.4C96.9484 10.3867 97.1618 11.2933 97.5884 12.12C98.0151 12.92 98.6018 13.56 99.3484 14.04C100.095 14.52 100.922 14.76 101.828 14.76C102.815 14.76 103.668 14.52 104.388 14.04C105.135 13.56 105.708 12.92 106.108 12.12C106.535 11.2933 106.748 10.3867 106.748 9.4C106.748 8.38667 106.535 7.48 106.108 6.68C105.708 5.85333 105.135 5.2 104.388 4.72C103.668 4.24 102.815 4 101.828 4C100.895 4 100.055 4.25333 99.3084 4.76C98.5884 5.24 98.0151 5.88 97.5884 6.68C97.1618 7.48 96.9484 8.38667 96.9484 9.4ZM120.456 1.08L120.856 4.52L120.696 4.24C121.336 3.01333 122.203 2.05333 123.296 1.36C124.416 0.666666 125.709 0.319999 127.176 0.319999C128.109 0.319999 128.936 0.466666 129.656 0.759999C130.376 1.05333 130.976 1.46667 131.456 2C131.963 2.53333 132.296 3.2 132.456 4L132.216 4.08C132.909 2.93333 133.803 2.02667 134.896 1.36C135.989 0.666666 137.149 0.319999 138.376 0.319999C140.029 0.319999 141.349 0.799999 142.336 1.76C143.323 2.69333 143.829 3.90667 143.856 5.4V18H139.416V7.16C139.389 6.33333 139.216 5.65333 138.896 5.12C138.576 4.56 137.976 4.25333 137.096 4.2C136.136 4.2 135.309 4.50667 134.616 5.12C133.923 5.70667 133.376 6.48 132.976 7.44C132.603 8.37333 132.416 9.37333 132.416 10.44V18H127.896V7.16C127.869 6.33333 127.683 5.65333 127.336 5.12C126.989 4.56 126.376 4.25333 125.496 4.2C124.563 4.2 123.749 4.50667 123.056 5.12C122.363 5.70667 121.829 6.48 121.456 7.44C121.083 8.37333 120.896 9.36 120.896 10.4V18H116.416V1.08H120.456ZM158.49 18.44C156.49 18.44 154.783 18.0533 153.37 17.28C151.956 16.5067 150.876 15.44 150.13 14.08C149.383 12.6933 149.01 11.1333 149.01 9.4C149.01 7.69333 149.436 6.16 150.29 4.8C151.143 3.44 152.29 2.36 153.73 1.56C155.196 0.733332 156.81 0.319999 158.57 0.319999C160.89 0.319999 162.796 0.999999 164.29 2.36C165.81 3.69333 166.823 5.58667 167.33 8.04L153.69 12.64L152.65 10.12L163.29 6.32L162.37 6.84C162.076 6.04 161.596 5.34667 160.93 4.76C160.29 4.17333 159.383 3.88 158.21 3.88C157.276 3.88 156.45 4.10667 155.73 4.56C155.01 4.98667 154.436 5.6 154.01 6.4C153.61 7.17333 153.41 8.09333 153.41 9.16C153.41 10.2533 153.636 11.2133 154.09 12.04C154.543 12.8667 155.156 13.5067 155.93 13.96C156.703 14.3867 157.583 14.6 158.57 14.6C159.263 14.6 159.93 14.48 160.57 14.24C161.21 14 161.81 13.68 162.37 13.28L164.41 16.6C163.53 17.16 162.556 17.6133 161.49 17.96C160.45 18.28 159.45 18.44 158.49 18.44Z" fill="#062D3E"/>
</svg>
